<svg width="33" height="31" viewBox="0 0 33 31" fill="none" xmlns="http://www.w3.org/2000/svg">
<path d="M17.5522 19.0151H2.19403C0.982301 19.0151 0 19.9974 0 21.2092C0 22.4209 0.9823 23.4032 2.19403 23.4032H19.7463L17.5522 19.0151Z" fill="#FAF8FF"/>
<path d="M3.29125 25.3557L2.55991 26.6224C1.95404 27.6718 2.31359 29.0136 3.36298 29.6195C4.41236 30.2253 5.75421 29.8658 6.36008 28.8164L8.35814 25.3557L3.29125 25.3557Z" fill="#FAF8FF"/>
<path d="M10.6968 21.2845L20.6217 4.09393C21.2276 3.04455 20.8681 1.7027 19.8187 1.09683C18.7693 0.490968 17.4274 0.850515 16.8216 1.8999L5.51883 21.4768L10.6968 21.2845Z" fill="#FAF8FF"/>
<path d="M19.8042 9.4318L29.7292 26.6224C30.335 27.6718 29.9755 29.0136 28.9261 29.6195C27.8767 30.2253 26.5349 29.8658 25.929 28.8164L18.78 16.434C18.2508 15.5173 18.1397 14.4179 18.4748 13.4139L19.8042 9.4318Z" fill="#FAF8FF"/>
<path d="M23.4033 19.0151H29.9854C31.1971 19.0151 32.1794 19.9974 32.1794 21.2092C32.1794 22.4209 31.1971 23.4032 29.9854 23.4032H23.4033V19.0151Z" fill="#FAF8FF"/>
<path d="M18.4268 7.60059L15.1357 1.90033C14.5298 0.850941 13.188 0.491394 12.1386 1.09726C11.0892 1.70312 10.7297 3.04497 11.3355 4.09436L14.6266 9.79462L18.4268 7.60059Z" fill="#FAF8FF"/>
</svg>
